<svg width="260" height="43" fill="none" xmlns="http://www.w3.org/2000/svg">
  <path d="M68.478 34.288c-2.176 0-4.086-.47-5.728-1.408-1.622-.939-2.87-2.283-3.744-4.032-.875-1.75-1.312-3.797-1.312-6.144s.437-4.384 1.312-6.112c.874-1.75 2.122-3.093 3.744-4.032 1.642-.939 3.552-1.408 5.728-1.408 1.408 0 2.73.213 3.968.64a10.07 10.07 0 013.296 1.792c.277.213.469.437.576.672.106.235.16.523.16.864 0 .47-.128.864-.384 1.184-.256.32-.566.48-.928.48-.427 0-.864-.15-1.312-.448-.918-.683-1.771-1.152-2.56-1.408-.79-.277-1.664-.416-2.624-.416-2.22 0-3.904.693-5.056 2.08-1.131 1.387-1.696 3.424-1.696 6.112 0 2.71.565 4.757 1.696 6.144 1.152 1.387 2.837 2.08 5.056 2.08.917 0 1.76-.139 2.528-.416.789-.277 1.674-.747 2.656-1.408.213-.128.426-.235.64-.32.213-.085.437-.128.672-.128.362 0 .672.16.928.48.256.32.384.715.384 1.184 0 .32-.054.608-.16.864-.107.235-.3.459-.576.672-.96.79-2.06 1.397-3.296 1.824-1.238.405-2.56.608-3.968.608zM89.727 34.288c-2.198 0-4.107-.47-5.728-1.408-1.6-.939-2.837-2.283-3.712-4.032-.875-1.75-1.312-3.797-1.312-6.144s.427-4.384 1.28-6.112c.874-1.75 2.123-3.093 3.744-4.032 1.621-.939 3.53-1.408 5.728-1.408 2.197 0 4.096.47 5.696 1.408 1.621.939 2.858 2.283 3.712 4.032.875 1.728 1.312 3.765 1.312 6.112s-.437 4.395-1.312 6.144c-.875 1.75-2.123 3.093-3.744 4.032-1.6.939-3.488 1.408-5.664 1.408zm0-3.296c2.07 0 3.68-.715 4.832-2.144 1.173-1.43 1.76-3.477 1.76-6.144 0-2.667-.587-4.704-1.76-6.112-1.152-1.43-2.763-2.144-4.832-2.144-2.09 0-3.723.715-4.896 2.144-1.152 1.408-1.728 3.445-1.728 6.112 0 2.667.576 4.715 1.728 6.144 1.173 1.43 2.805 2.144 4.896 2.144zM121.032 12.336c.342-.725.907-1.088 1.696-1.088.534 0 1.014.17 1.44.512.427.341.64.768.64 1.28 0 .235-.064.501-.192.8l-8.864 19.072c-.192.405-.49.725-.896.96-.384.213-.8.32-1.248.32-.448 0-.874-.107-1.28-.32a2.213 2.213 0 01-.864-.96l-8.832-19.072c-.128-.299-.192-.555-.192-.768 0-.533.214-.97.64-1.312.448-.341.95-.512 1.504-.512.363 0 .694.096.992.288.32.17.566.437.736.8l7.36 16.352 7.36-16.352zM130.108 34.192c-.619 0-1.12-.192-1.504-.576-.363-.384-.544-.885-.544-1.504V13.328c0-.619.181-1.11.544-1.472.384-.384.885-.576 1.504-.576.64 0 1.141.192 1.504.576.384.363.576.853.576 1.472v18.784c0 .619-.192 1.12-.576 1.504-.363.384-.864.576-1.504.576zM140.044 34c-.619 0-1.109-.17-1.472-.512-.341-.341-.512-.821-.512-1.44V13.392c0-.619.171-1.099.512-1.44.363-.341.853-.512 1.472-.512h6.336c3.691 0 6.549.992 8.576 2.976 2.048 1.963 3.072 4.725 3.072 8.288 0 3.584-1.024 6.368-3.072 8.352-2.027 1.963-4.885 2.944-8.576 2.944h-6.336zm6.08-3.36c5.184 0 7.776-2.645 7.776-7.936 0-5.27-2.592-7.904-7.776-7.904h-3.936v15.84h3.936zM178.681 34.288c-1.643 0-3.2-.213-4.672-.64-1.451-.448-2.635-1.045-3.552-1.792-.491-.363-.736-.875-.736-1.536 0-.448.128-.832.384-1.152.277-.341.597-.512.96-.512.384 0 .821.15 1.312.448a9.59 9.59 0 002.88 1.44c1.002.299 2.112.448 3.328.448 1.557 0 2.752-.267 3.584-.8.832-.555 1.248-1.355 1.248-2.4 0-.81-.395-1.43-1.184-1.856-.768-.448-2.059-.875-3.872-1.28-1.878-.405-3.403-.875-4.576-1.408-1.174-.533-2.059-1.216-2.656-2.048-.598-.832-.896-1.888-.896-3.168 0-1.323.373-2.507 1.12-3.552.746-1.045 1.781-1.856 3.104-2.432 1.344-.597 2.848-.896 4.512-.896 3.05 0 5.536.81 7.456 2.432.277.235.469.47.576.704.128.213.192.49.192.832 0 .448-.139.843-.416 1.184-.256.32-.566.48-.928.48-.214 0-.416-.032-.608-.096a5.238 5.238 0 01-.704-.352c-.875-.64-1.728-1.11-2.56-1.408-.811-.32-1.814-.48-3.008-.48-1.451 0-2.603.299-3.456.896-.832.576-1.248 1.387-1.248 2.432 0 .875.373 1.547 1.12 2.016.746.47 2.016.907 3.808 1.312 1.898.427 3.434.907 4.608 1.44 1.194.512 2.101 1.173 2.72 1.984.64.81.96 1.824.96 3.04 0 1.323-.374 2.496-1.12 3.52-.726 1.003-1.76 1.792-3.104 2.368-1.323.555-2.848.832-4.576.832zM200.079 17.968c3.669 0 5.504 2.144 5.504 6.432v7.872c0 .597-.181 1.067-.544 1.408-.341.341-.821.512-1.44.512s-1.109-.17-1.472-.512c-.363-.341-.544-.81-.544-1.408V24.4c0-1.13-.235-1.952-.704-2.464-.448-.533-1.163-.8-2.144-.8-1.152 0-2.08.363-2.784 1.088-.683.725-1.024 1.696-1.024 2.912v7.136c0 .597-.181 1.067-.544 1.408-.363.341-.853.512-1.472.512s-1.109-.17-1.472-.512c-.341-.341-.512-.81-.512-1.408V13.136c0-.555.181-1.003.544-1.344.384-.341.875-.512 1.472-.512s1.077.16 1.44.48c.363.32.544.757.544 1.312v7.456a5.145 5.145 0 012.112-1.888c.896-.448 1.909-.672 3.04-.672zM211.63 34.192c-.576 0-1.056-.16-1.44-.48-.363-.341-.544-.821-.544-1.44V19.92c0-.619.181-1.088.544-1.408.384-.32.864-.48 1.44-.48s1.056.16 1.44.48c.384.32.576.79.576 1.408v12.352c0 .619-.192 1.099-.576 1.44-.384.32-.864.48-1.44.48zm0-19.008c-.726 0-1.302-.192-1.728-.576-.427-.405-.64-.928-.64-1.568s.213-1.152.64-1.536c.426-.384 1.002-.576 1.728-.576.704 0 1.269.192 1.696.576.448.384.672.896.672 1.536s-.214 1.163-.64 1.568c-.427.384-1.003.576-1.728.576zM230.155 29.712c.362 0 .65.139.864.416.234.277.352.65.352 1.12 0 .661-.395 1.216-1.184 1.664-.726.405-1.547.736-2.464.992-.918.235-1.792.352-2.624.352-2.518 0-4.512-.725-5.984-2.176-1.472-1.45-2.208-3.435-2.208-5.952 0-1.6.32-3.019.96-4.256.64-1.237 1.536-2.197 2.688-2.88 1.173-.683 2.496-1.024 3.968-1.024 1.408 0 2.634.31 3.68.928 1.045.619 1.856 1.493 2.432 2.624.576 1.13.864 2.464.864 4 0 .917-.406 1.376-1.216 1.376h-9.44c.128 1.472.544 2.56 1.248 3.264.704.683 1.728 1.024 3.072 1.024.682 0 1.28-.085 1.792-.256.533-.17 1.13-.405 1.792-.704.64-.341 1.109-.512 1.408-.512zm-5.536-8.928c-1.088 0-1.963.341-2.624 1.024-.64.683-1.024 1.664-1.152 2.944h7.232c-.043-1.301-.363-2.283-.96-2.944-.598-.683-1.43-1.024-2.496-1.024zM236.755 34.192c-.576 0-1.056-.16-1.44-.48-.363-.341-.544-.821-.544-1.44V13.168c0-.619.181-1.088.544-1.408.384-.32.864-.48 1.44-.48s1.056.16 1.44.48c.384.32.576.79.576 1.408v19.104c0 .619-.192 1.099-.576 1.44-.384.32-.864.48-1.44.48zM255.952 11.28c.597 0 1.088.17 1.472.512.384.341.576.79.576 1.344v19.136c0 .576-.182 1.035-.544 1.376-.363.341-.843.512-1.44.512-.598 0-1.078-.17-1.44-.512-.363-.341-.544-.8-.544-1.376v-.8a4.99 4.99 0 01-2.048 2.048c-.875.49-1.878.736-3.008.736-1.344 0-2.55-.341-3.616-1.024-1.046-.683-1.867-1.643-2.464-2.88-.576-1.259-.864-2.699-.864-4.32 0-1.621.288-3.04.864-4.256.597-1.216 1.418-2.155 2.464-2.816 1.045-.661 2.25-.992 3.616-.992 1.13 0 2.133.235 3.008.704A4.891 4.891 0 01254 20.656v-7.584c0-.533.17-.96.512-1.28.362-.341.842-.512 1.44-.512zm-5.92 19.872c1.28 0 2.261-.437 2.944-1.312.704-.875 1.056-2.123 1.056-3.744s-.352-2.859-1.056-3.712c-.683-.875-1.654-1.312-2.912-1.312-1.28 0-2.272.427-2.976 1.28-.704.853-1.056 2.08-1.056 3.68 0 1.621.352 2.88 1.056 3.776.704.896 1.685 1.344 2.944 1.344z" fill="#002D42"/>
  <path d="M23 4L7 8v12c0 12 16 20 16 20s16-8 16-20V8L23 4z" fill="#15A3A6"/>
  <path fill-rule="evenodd" clip-rule="evenodd" d="M17 20a6 6 0 0111.146-3.087l3.43-2.059A9.995 9.995 0 0023 10c-5.523 0-10 4.477-10 10s4.477 10 10 10a9.995 9.995 0 008.576-4.854l-3.43-2.059A6 6 0 0117 20z" fill="#fff"/>
</svg>
