<svg width="375" height="325" fill="none" xmlns="http://www.w3.org/2000/svg">
  <mask id="a" maskUnits="userSpaceOnUse" x="0" y="0" width="375" height="325">
    <path fill="#fff" d="M0 0h375v325H0z"/>
  </mask>
  <g mask="url(#a)">
    <path d="M362.59 51.48c-3.1 0-6.01.79-8.54 2.16-4.52-10.32-15.06-17.55-27.34-17.55-15.33 0-27.94 11.27-29.53 25.74-2.31-1.08-4.87-1.7-7.58-1.7-7.35 0-13.65 4.42-16.43 10.74a35.002 35.002 0 00-12.3-2.23c-5.3 0-10.31 1.17-14.79 3.26h-21.2c-4.4-5.59-11.22-9.18-18.88-9.18-7.66 0-14.48 3.59-18.88 9.18h-6.75c.02-.48.04-.97.04-1.46 0-15.92-13.3-28.83-29.7-28.83-2.29 0-4.51.26-6.64.73.03-.41.06-.83.06-1.25 0-9.42-7.87-17.05-17.57-17.05-7.63 0-14.11 4.73-16.53 11.34a30.048 30.048 0 00-8.15-2.36C101.67 14.2 85.9-1 66.46-1 48.69-1 33.99 11.7 31.44 28.26a17.871 17.871 0 00-7.91-1.84c-8.02 0-14.77 5.22-16.88 12.35C1.91 36.08-3.18 34.26-9 34v104h385V57c-3.22-3.5-8.2-5.52-13.41-5.52z" fill="#D3F2EE"/>
    <path d="M275.481 94.91h-9.05V57.8l-13.81-4.58V35.67l-8.13-7.07h-7.04l-7.91 7.07v46.39h-4.9V22.65h-23.21v75.6h-6.95V40.1h-23.21v46.6h-7.25V57.23l-18.85 12.43v31.8h-6.12V71.53h-5.18l-2.07-7.46h-2.51c-1.16-1.54-3.17-2.56-5.47-2.56s-4.31 1.02-5.47 2.56h-2.51l-2.07 7.46h-5.18v27.98h-5.76l-5.52 6.22v11.43l-6.38-3.35h-2.02c-2.17 0-3.92 1.63-3.92 3.63v33.9h183.68l6.82-11.29V94.91h-.01z" fill="#82B7BF"/>
    <path d="M-16.198 73.26h47.98c25.1 0 48.86 11.38 64.59 30.93l7.519 9.35a20.13 20.13 0 0015.69 7.51h14.7c9.28 0 18.07 4.18 23.93 11.37a9.407 9.407 0 007.29 3.46h38.11l8.79 47.5-233.27-3.26 4.67-106.86z" fill="#83CCAE"/>
    <path d="M366.3 83.97c-.41-.9-.89-1.8-1.43-2.7-1.05-1.74-2.5-3.2-4.22-4.26-9.61-5.92-19.33-4.01-25.45 1.7a34.621 34.621 0 00-17.92-4.97c-8.13 0-15.6 2.79-21.52 7.46l-4.25-12.14c-.32-.9-1.59-.9-1.91 0l-5.21 14.9h-.47L281.83 78c-.32-.9-1.59-.9-1.91 0l-2.09 5.96h-6.22c-7.66 0-14.87 3.63-19.43 9.78a24.184 24.184 0 01-14.2 9.21l-9.94 2.2c-.6.13-1.2.27-1.79.42-18.47 4.61-33.7 17.96-41.25 35.43v11h190V84l-8.7-.03z" fill="#5DBA9E"/>
    <path d="M375 188.045v-90.13a20.478 20.478 0 00-8.463 4.606c-5.366-3.14-11.654-4.955-18.384-4.955-11.828 0-22.313 5.603-28.806 14.217a21.426 21.426 0 00-.842-1.446 12.884 12.884 0 00-4.329-4.247c-9.858-5.902-19.83-3.998-26.108 1.695-5.365-3.141-11.654-4.955-18.384-4.955-17.337 0-31.781 12.014-35.012 27.946-6.063-2.592-13.655-2.442-21.195 2.443a11.357 11.357 0 00-3.334 3.32c-3.498 5.404-18.794.808-18.794.808h-59.336c-2.903 0-5.652-1.266-7.479-3.45-6.011-7.169-15.028-11.336-24.549-11.336h-15.08c-6.258 0-12.177-2.752-16.096-7.488l-7.714-9.322c-16.147-19.502-32.52-32.563-58.28-32.563H.507l-3.529-9.8c-.359-1.007-1.816-1.007-2.185 0l-2.831 7.866-7.653-21.237c-.472-1.296-2.36-1.296-2.832 0L-20 54.125v126.443l250.301 5.812L375 188.045z" fill="#4DAC92"/>
    <path d="M290.691 135.08H53.521v3.78h237.17v-3.78z" fill="#D3F2EE"/>
    <path d="M268.182 263.079c1.65-44.02-51.76-71.33-78.1-82.85-7.29-3.19-15.91-6.64-31.29-8.76-32.48-4.48-71.78-5.71-75.73-5.32l-12.88 11.5c71.84 0 81.22 46.48 58.47 60.86-41.12 25.99-41.25 27.63-93.88 39.14 0 .55-20.48 37.19-21.55 49.68h227.21c13.66-19.19 27.75-64.25 27.75-64.25z" fill="#fff"/>
    <path d="M163.282 157.57c-1.97 0-3.91.12-5.82.34 17.3 1.98 31.94 12.67 39.44 27.58h11.64c-8.33-16.56-25.46-27.92-45.26-27.92z" fill="#116A7D"/>
    <path d="M59.301 143.1v42.39H118.023c7.5-14.91 22.14-25.6 39.44-27.58 1.91-.22 3.85-.34 5.82-.34 19.8 0 36.93 11.37 45.26 27.93h89.67v-42.4H59.302z" fill="#D3F2EE"/>
    <path d="M195.679 187.611a161.634 161.634 0 00-9.706-4.284c-7.436 9.947-21.535 17.522-34.924 20.934a28.61 28.61 0 011.015 1.924c16.503-.972 33.807-8.062 43.615-18.574z" fill="#C2EBE9"/>
    <path d="M238.798 224.543h-78.496a71.788 71.788 0 01-.141 3.78h80.78a69.8 69.8 0 00-2.143-3.78zM195.844 187.168c-9.308 10.61-28.333 17.852-43.995 18.832 3.705 3.5 8.189 8.908 8.254 14.408h75.725c-8.94-12.84-22.622-24.36-39.984-33.24z" fill="#F2FDFB"/>
    <path d="M210.611 187.91l14.73-18.83a34.929 34.929 0 0121.44-11.88l.2-.03c9.15-1.42 17.1-7.08 21.83-15.04 4.61-7.74 20.09-18.77 30.85-21.29C311.961 117.96 375 117 375 117v137.5l-108.935-3.503-55.454-63.087z" fill="#5095A0"/>
    <path d="M147.132 170c57.44 9.15 100.09 47.042 100.09 85.442 0 39.9-35.33 69.56-89.94 79.51h89.01c22.12-16.95 28.41-39.85 28.41-65.06-.02-51.52-57.13-98.652-127.57-99.892z" fill="#fff"/>
    <path d="M151.435 219.197c1.134 7.803 1.242 17.483-1.457 24.173l-1.549 13.111-172.72-37.201v-118.7H1.145c9.564.66 18.678 4.36 26.07 10.56L31.44 98.4a.984.984 0 011.878 0l8.732 26.37 3.247-9.78a.984.984 0 011.877 0l8.478 24.87c8.537 8.33 19.89 13 31.713 13 42.069 6.86 62.937 58.534 64.071 66.337z" fill="#5095A0"/>
    <path d="M327.288 166.512c14.214 0 25.736-11.223 25.736-25.067 0-13.845-11.522-25.068-25.736-25.068s-25.737 11.223-25.737 25.068c0 13.844 11.523 25.067 25.737 25.067z" fill="#5DBA9E"/>
    <path d="M329.198 175.884v-12.2a1.82 1.82 0 00.098-.129l10.909-15.548-3.153-2.098-7.854 11.193v-19.111h-3.819v8.397l-8.217-7.48-2.605 2.709 10.792 9.824.03.027v26.54a62.977 62.977 0 00-12.354 9.74l-11.404 11.57a25.67 25.67 0 01-18.284 7.666 25.68 25.68 0 00-19.281 8.735l-20.548 23.355L255 325h186.802V193.031c0-25.673-21.834-47.367-44.899-36.094l-11.676 5.707a62.633 62.633 0 01-27.505 6.365 62.639 62.639 0 00-28.524 6.875z" fill="#fff"/>
    <path d="M57.335 157.089c12.994 0 23.528-10.26 23.528-22.917 0-12.656-10.534-22.917-23.528-22.917-12.994 0-23.528 10.261-23.528 22.917 0 12.657 10.534 22.917 23.528 22.917z" fill="#5DBA9E"/>
    <path d="M85.487 173.511c-9.205 0-16.666-7.268-16.666-16.233s7.461-16.233 16.666-16.233c9.204 0 16.665 7.268 16.665 16.233s-7.461 16.233-16.665 16.233z" fill="#116A7D"/>
    <path d="M59.081 154.504v24.863a67.519 67.519 0 0017.951 2.423h2.418c1.556 0 3.109.048 4.657.144v-10.756l-.037-.046a1.04 1.04 0 01-.034-.047l-7.881-11.232 2.278-1.516 5.674 8.086v-13.806h2.759v6.066l5.936-5.404 1.882 1.957-7.797 7.098-.021.019v19.802a74.24 74.24 0 0121.548 5.448l3.187 1.343c17.59 7.417 31.887 20.096 40.53 35.942l4.869 8.928V325H0V158.045c13.794 0 28.049 4.079 38.943 11.813 5.076 3.604 10.696 6.44 16.647 8.441v-34.963l-.028-.024-9.866-8.982 2.382-2.477 7.512 6.839v-7.676h3.491v17.471l7.18-10.233 2.883 1.918-9.973 14.215a2.15 2.15 0 01-.09.117z" fill="#fff"/>
  </g>
  <path opacity=".24" d="M171.368 297.78l-1.016.88c-1.015.87-1.592 2.1-1.592 3.38v11.01s40.25-13.74 38.294-45.6l-35.686 30.33z" fill="url(#paint0_linear)"/>
  <path d="M172.789 287.44L168 289.045l.172 6.975c.096 2.43 2.8 3.97 5.152 2.94 10.602-4.67 35.761-15.87 34.649-40.55l-14.172 12.05-21.012 16.98z" fill="#116A7D"/>
  <path d="M168 289.045c1.86-3.36 9.299-16.445 21.932-26.915 3.42-2.83 12.879-9.9 16.064-12.27.502-.38 1.25-.13 1.389.47 1.389 6.11 4.263 32.435-39.385 38.715z" fill="#E8F9F7"/>
  <path d="M163.726 263.32l-3.398-2.14a.666.666 0 01-.203-.96l2.052-2.86c.224-.32.694-.4 1.026-.19l2.597 1.63c1.859 1.17 3.259 2.88 3.986 4.87l.235.45-.662.83-1.39-.11a10.43 10.43 0 01-4.243-1.52z" fill="#116A7D"/>
  <path d="M206.912 287.196l-37.399-23.53-.662.921 37.399 23.53.662-.921z" fill="#116A7D"/>
  <path d="M185.73 268.317c.023-1.745-1.322-3.175-3.004-3.195-1.683-.019-3.065 1.38-3.088 3.125-.023 1.745 1.322 3.175 3.004 3.195 1.683.019 3.065-1.38 3.088-3.125z" fill="#116A7D"/>
  <path d="M191.397 279.08c-.652-1.26-2.17-4.25-3.046-5.98-.406-.79-1.251-1.3-2.181-1.31l-.587-.01c-.62-.01-1.112-.48-1.101-1.06l.01-.99-3.43-.04-.011.99c-.011.58-.513 1.04-1.133 1.03h-.224a3.835 3.835 0 00-2.715 1.07l-1.614 1.59c-.502.49-.556 1.27-.075 1.79.513.56 1.4.62 1.988.15l.449-.36c.16-.12.396-.02.396.17l-.054 3.85c-.032 2.45 2.084 4.47 4.713 4.47h.139c2.459.01 4.468-1.84 4.5-4.15l.021-1.88c0-.1.075-.2.182-.22a.25.25 0 01.267.11c.182.3.705 1.18 1.122 1.89a1.4 1.4 0 001.636.6c.737-.23 1.09-1.04.748-1.71z" fill="#116A7D"/>
  <path d="M190.125 277.25c.363-.54 1.186-.59 1.614-.09l.395.45c.257.29.299.7.118 1.03l-.93 1.66-.845-1.24M198.292 255.19c.023-1.745-1.322-3.176-3.004-3.195-1.682-.019-3.065 1.38-3.087 3.125-.023 1.745 1.322 3.175 3.004 3.194 1.682.02 3.064-1.379 3.087-3.124z" fill="#116A7D"/>
  <path d="M203.954 265.95c-.652-1.26-2.169-4.25-3.046-5.98-.406-.79-1.25-1.3-2.18-1.31l-.588-.01c-.62-.01-1.111-.48-1.101-1.06l.011-.99-3.431-.04-.01.99c-.011.58-.513 1.04-1.133 1.03h-.086c-1.122-.01-2.191.41-2.96 1.17l-1.518 1.49c-.502.49-.556 1.27-.075 1.79.513.56 1.4.62 1.988.15l.449-.36c.16-.12.396-.02.396.17l-.054 3.66c-.032 2.45 2.084 4.47 4.713 4.47h.139c2.459.01 4.468-1.84 4.5-4.15l.021-1.68c0-.1.075-.2.182-.22a.25.25 0 01.267.11c.182.3.706 1.18 1.122 1.89a1.4 1.4 0 001.636.6c.758-.25 1.1-1.05.758-1.72zM179.395 250.84l-3.399-2.14a.666.666 0 01-.203-.96l2.052-2.86c.224-.32.695-.4 1.026-.19l2.597 1.63c1.86 1.17 3.26 2.88 3.986 4.87l.236.45-.663.83-1.389-.11a10.51 10.51 0 01-4.243-1.52z" fill="#116A7D"/>
  <path d="M222.574 274.706l-37.399-23.531-.662.921 37.399 23.531.662-.921z" fill="#116A7D"/>
  <path d="M203.805 267.3l2.276-2.31c.406-.41.374-1.04-.064-1.42a1.121 1.121 0 00-1.518.06l-2.276 2.31 1.582 1.36z" fill="#116A7D"/>
  <path d="M227.376 273.899l-11.414-.131-.043 3.34 11.413.131.044-3.34zM214.497 287.019l-11.413-.131-.044 3.339 11.413.132.044-3.34z" fill="#fff"/>
  <defs>
    <linearGradient id="paint0_linear" x1="186.878" y1="288.819" x2="191.434" y2="296.123" gradientUnits="userSpaceOnUse">
      <stop stop-color="#116A7D"/>
      <stop offset="1" stop-color="#fff"/>
    </linearGradient>
  </defs>
</svg>
